<?xml version="1.0" encoding="utf-8"?>
<!-- Generator: Adobe Illustrator 23.0.0, SVG Export Plug-In . SVG Version: 6.00 Build 0)  -->
<svg version="1.1" id="Layer_1" xmlns="http://www.w3.org/2000/svg" xmlns:xlink="http://www.w3.org/1999/xlink" x="0px" y="0px"
	 viewBox="0 0 400 400" style="enable-background:new 0 0 400 400;" xml:space="preserve">
<style type="text/css">
	.st0{fill:#FFC738;}
	.st1{opacity:0.46;fill:#243E93;}
	.st2{opacity:0.46;fill:#010101;}
	.st3{opacity:0.6;fill:#243E93;}
</style>
<g>
	<path class="st0" d="M299.6,400c11,0,19.9-8.9,19.9-19.9V21.6c0-11-8.9-19.9-19.9-19.9H100.4c-11,0-19.9,8.9-19.9,19.9v358.5
		c0,11,8.9,19.9,19.9,19.9H299.6z M93.8,380.1v-39.8h152.7c3.7,0,6.6-3,6.6-6.6c0-3.7-3-6.6-6.6-6.6H93.8V68.1h19.9
		c3.7,0,6.6-3,6.6-6.6c0-3.7-3-6.6-6.6-6.6H93.8V21.6c0-3.7,3-6.6,6.6-6.6h199.1c3.7,0,6.6,3,6.6,6.6v33.2H153.5
		c-3.7,0-6.6,3-6.6,6.6c0,3.7,3,6.6,6.6,6.6h152.7V327h-19.9c-3.7,0-6.6,3-6.6,6.6c0,3.7,3,6.6,6.6,6.6h19.9v39.8
		c0,3.7-3,6.6-6.6,6.6H100.4C96.8,386.7,93.8,383.8,93.8,380.1z"/>
	<path class="st2" d="M193.4,374h13.3c3.7,0,6.6-2.1,6.6-4.6s-3-4.6-6.6-4.6h-13.3c-3.7,0-6.6,2.1-6.6,4.6S189.7,374,193.4,374z"/>
	<path class="st1" d="M281.8,280.5l9.1-15.1c3.9-6.5,2-14.9-4.3-19.1l-36.2-24.1c-6.2-4.1-14.5-2.7-19.1,3.1l-10.5,13.5
		c-0.3,0.3-0.7,0.5-1.1,0.3l-2-1.1c-11.5-6.3-21.9-14.5-30.7-24.2c-9.7-8.8-17.9-19.2-24.2-30.7l-1.1-2c-0.2-0.4-0.1-0.8,0.3-1.1
		l13.5-10.5c5.8-4.6,7.2-12.9,3.1-19l-24.1-36.2c-4.2-6.3-12.6-8.2-19.1-4.3l-15.1,9.1c-5.6,3.3-9.6,8.6-11.4,14.8
		c-5.7,20.8-1.6,56.4,50,108c40.9,40.9,71.7,52,93.1,52c5,0,10-0.6,14.9-1.9C273.3,290.1,278.6,286,281.8,280.5z M168.4,232.4
		c-49.6-49.6-50.5-80.9-46.6-95.1c0.8-2.9,2.8-5.4,5.4-6.9l15.1-9.1c0.1-0.1,0.3-0.1,0.5-0.1c0.3,0,0.6,0.1,0.7,0.4l13.1,19.7
		l11,16.4c0.3,0.4,0.2,0.9-0.2,1.2l-13.5,10.5c-5.5,4.3-7.1,11.9-3.7,18l1,1.9c6.9,12.6,15.8,24,26.4,33.7
		c9.7,10.6,21.1,19.6,33.7,26.4l1.9,1c6.1,3.4,13.8,1.8,18-3.7l10.5-13.5c0.3-0.4,0.8-0.5,1.2-0.2l36.1,24.1
		c0.4,0.3,0.5,0.8,0.3,1.2l-9.1,15.1c-1.5,2.6-4,4.6-6.9,5.4C249.3,282.9,218,282.1,168.4,232.4z"/>
</g>
</svg>
