<?xml version="1.0" encoding="utf-8"?>
<!-- Generator: Adobe Illustrator 22.0.1, SVG Export Plug-In . SVG Version: 6.00 Build 0)  -->
<svg version="1.1" id="Layer_1" xmlns="http://www.w3.org/2000/svg" xmlns:xlink="http://www.w3.org/1999/xlink" x="0px" y="0px"
	 viewBox="0 0 3546 3546" style="enable-background:new 0 0 3546 3546;" xml:space="preserve">
<style type="text/css">
	.st0{opacity:0.41;}
	.st1{fill:#C5D9FF;}
	.st2{opacity:0.88;}
	.st3{opacity:0.31;fill:#C5D9FF;enable-background:new    ;}
	.st4{opacity:0.35;fill:#88EAEA;enable-background:new    ;}
	.st5{fill:#243762;}
	.st6{fill:#FFFFFF;}
	.st7{fill:#03A9F4;}
	.st8{fill:#ECF1F7;}
	.st9{fill:none;}
	.st10{opacity:0.29;fill:#243762;enable-background:new    ;}
	.st11{fill:#F7A9B4;}
	.st12{fill:#2AB8EA;}
	.st13{fill:none;stroke:#666666;stroke-miterlimit:10;}
	.st14{fill:#5279A4;}
	.st15{opacity:0.31;fill:#153575;enable-background:new    ;}
	.st16{opacity:0.23;fill:#2E5A82;enable-background:new    ;}
	.st17{fill:#2E5A82;}
	.st18{fill:#FFC774;}
	.st19{opacity:0.19;fill:#892A04;enable-background:new    ;}
	.st20{fill:#2F2323;}
	.st21{opacity:0.11;fill:#892A04;enable-background:new    ;}
	.st22{fill:#009991;}
	.st23{fill:none;stroke:#2F2323;stroke-width:3;stroke-miterlimit:10;}
	.st24{fill:#6F431C;}
	.st25{opacity:0.19;fill:#3A0F01;enable-background:new    ;}
	.st26{fill:#5E300D;}
	.st27{fill:#F48940;}
	.st28{fill:#B2092A;}
	.st29{fill:#566E77;}
	.st30{fill:#778F9B;}
	.st31{opacity:9.000000e-02;fill:#1B3144;enable-background:new    ;}
	.st32{opacity:0.34;fill:#FFFFFF;enable-background:new    ;}
	.st33{opacity:0.17;fill:#1B3144;enable-background:new    ;}
	.st34{opacity:0.15;fill:#FFFFFF;enable-background:new    ;}
	.st35{fill:#54A39F;}
	.st36{opacity:0.21;fill:#0A1893;enable-background:new    ;}
	.st37{fill:#00529E;}
	.st38{fill:#512C10;}
	.st39{fill:none;stroke:#512C10;stroke-width:2;stroke-linecap:round;stroke-linejoin:round;stroke-miterlimit:10;}
</style>
<g id="BACKGROUND">
</g>
<g id="OBJECTS">
	<g class="st0">
		<g>
			<path class="st1" d="M3101.1,2172.5c3-52.1,1.7-104.4-4.2-156.2c-27.6-243.4-152.5-473-336.3-635
				c-65.6-57.8-140.2-109.6-182.9-185.8c-71.9-128.5-66.4-276.1-155.6-402.9c-89.3-127-219.5-226-366.2-276.9
				c-437.6-151.6-1050.3,95.3-995.1,622.5c0.2,1.9,0.4,4.6,0.6,8.1c7.3,109.5-78.6,201.6-188,204.2
				c-403.8,9.6-751.3,320.9-825.7,715.2c-47.8,253.6,30.5,531.5,216,710.9c138.5,133.9,324.3,207.5,510.1,258
				c372.7,101.4,764.9,122.6,1149.2,83.8c359.7-36.3,739.1-139.7,971.8-416.4C3018.8,2554.5,3089.9,2365.2,3101.1,2172.5z"/>
		</g>
	</g>
	<g class="st2">
		<g>
			<path class="st1" d="M2769.1,2197.4c2.4-40.8,1.3-81.8-3.3-122.4c-21.6-190.7-119.4-370.5-263.5-497.4
				c-51.4-45.3-109.8-85.8-143.3-145.6c-56.3-100.6-52-216.3-121.9-315.6c-70-99.5-171.9-177.1-286.9-216.9
				c-342.8-118.8-822.8,74.6-779.6,487.7c0.2,1.5,0.3,3.6,0.5,6.4c5.7,85.8-61.6,157.9-147.3,160
				c-316.3,7.5-588.6,251.4-646.8,560.3c-37.5,198.7,23.9,416.4,169.2,556.9c108.5,104.9,254,162.5,399.6,202.1
				c292,79.4,599.2,96,900.2,65.7c281.8-28.4,579-109.4,761.3-326.2C2704.6,2496.6,2760.3,2348.3,2769.1,2197.4z"/>
		</g>
	</g>
	
		<ellipse transform="matrix(0.7071 -0.7071 0.7071 0.7071 242.3691 2314.9976)" class="st3" cx="2915.6" cy="864.9" rx="98.7" ry="98.7"/>
	<ellipse class="st3" cx="746.9" cy="750.4" rx="114.5" ry="114.5"/>
	<g>
		<g>
			<circle class="st4" cx="1177.9" cy="1405.3" r="390.4"/>
			<path class="st5" d="M1449,1686.5c-1,0-1.9-0.4-2.6-1.1c-1.5-1.5-1.5-3.8,0-5.3c73-73,113.2-170.1,113.2-273.4
				s-40.2-200.4-113.2-273.4s-170.1-113.2-273.4-113.2s-200.4,40.2-273.4,113.2c-1.5,1.5-3.8,1.5-5.3,0s-1.5-3.8,0-5.3
				c74.4-74.4,173.4-115.4,278.7-115.4s204.2,41,278.7,115.4c74.4,74.4,115.4,173.4,115.4,278.7s-41,204.2-115.4,278.7
				C1450.9,1686.1,1449.9,1686.5,1449,1686.5z"/>
			<circle class="st6" cx="1177.9" cy="1405.3" r="297.1"/>
			<path class="st5" d="M1177.9,1706.1c-165.9,0-300.8-134.9-300.8-300.8s134.9-300.8,300.8-300.8c2.1,0,3.7,1.7,3.7,3.7
				s-1.7,3.7-3.7,3.7c-161.7,0-293.3,131.6-293.3,293.3s131.6,293.3,293.3,293.3c2.1,0,3.7,1.7,3.7,3.7
				C1181.7,1704.5,1180,1706.1,1177.9,1706.1z"/>
			<path class="st5" d="M1254.9,1462.1h-80.8c-16.6,0-30.1-13.5-30.1-30.1v-112c0-14.4,11.7-26.1,26.1-26.1s26.1,11.7,26.1,26.1
				v89.9h58.7c14.4,0,26.1,11.7,26.1,26.1C1281,1450.4,1269.3,1462.1,1254.9,1462.1z"/>
		</g>
	</g>
	<g>
		<path class="st7" d="M571.9,1540.9l420.5,420.5c82.3,82.3,215.6,82.3,297.9,0l50.3-50.3c19-19,19-49.8,0-68.7L1169,1670.8
			c-19-19-49.8-19-68.7,0l-85.8,85.8c-6.7,6.7-17.6,6.7-24.3,0L782,1548.5c-6.6-6.6-6.6-17.4,0-24l84.6-84.6c19-19,19-49.8,0-68.7
			L690.4,1195c-18.7-18.7-49.1-19-68.1-0.6l-47.7,46.1C489.8,1322.3,488.6,1457.7,571.9,1540.9z"/>
		<g>
			<path class="st8" d="M585,1249l236.3,236.3l8.1-8.1l37.2-37.2c19-19,19-49.8,0-68.7L690.4,1195c-18.7-18.7-49.1-19-68.1-0.6
				l-47.7,46.1L585,1249z"/>
			<path class="st5" d="M821.3,1490.5l-238.8-238.8l-13.7-11l50.8-49.1c20.4-19.7,53.3-19.4,73.4,0.6l176.2,176.2
				c20.4,20.4,20.4,53.6,0,74L821.3,1490.5z M580.1,1240.2l7.5,6.1L821.3,1480l42.7-42.7c8.5-8.5,13.1-19.7,13.1-31.7
				s-4.7-23.3-13.1-31.7l-176.2-176.2c-17.2-17.2-45.4-17.4-62.9-0.5L580.1,1240.2z"/>
		</g>
		<g>
			<path class="st8" d="M1065.7,1721.5l236.3,236.3l8.1-8.1l37.2-37.2c19-19,19-49.8,0-68.7l-176.2-176.2
				c-18.7-18.7-49.1-19-68.1-0.6l-47.7,46.1L1065.7,1721.5z"/>
			<path class="st5" d="M1302,1963.1l-238.8-238.8l-13.7-11l50.8-49.1c20.4-19.7,53.3-19.4,73.4,0.6l176.2,176.2
				c9.9,9.9,15.3,23,15.3,37s-5.4,27.1-15.3,37L1302,1963.1z M1060.8,1712.8l7.5,6.1l233.7,233.7l42.7-42.7
				c8.5-8.5,13.1-19.7,13.1-31.7s-4.7-23.3-13.1-31.7l-176.2-176.2c-17.2-17.2-45.4-17.4-62.9-0.5L1060.8,1712.8z"/>
		</g>
		<g>
			<line class="st9" x1="603.1" y1="1221.1" x2="747.1" y2="1365.1"/>
			<path class="st5" d="M747.1,1368.8c-1,0-1.9-0.4-2.6-1.1l-144-144c-1.5-1.5-1.5-3.8,0-5.3s3.8-1.5,5.3,0l144,144
				c1.5,1.5,1.5,3.8,0,5.3C749,1368.4,748.1,1368.8,747.1,1368.8z"/>
		</g>
		<g>
			<line class="st9" x1="1175.8" y1="1793.8" x2="1319.8" y2="1937.8"/>
			<path class="st5" d="M1319.8,1941.5c-1,0-1.9-0.4-2.6-1.1l-144-144c-1.5-1.5-1.5-3.8,0-5.3s3.8-1.5,5.3,0l144,144
				c1.5,1.5,1.5,3.8,0,5.3C1321.7,1941.1,1320.8,1941.5,1319.8,1941.5z"/>
		</g>
	</g>
	<path class="st7" d="M1349.4,2562.8l-765.8,86.3c-14.7,1.7-28-8.9-29.6-23.6l-55.3-490.6c-0.1-0.8,0.5-1.5,1.2-1.6l816.1-91.9
		c0.8-0.1,1.5,0.5,1.6,1.2l55.3,490.8C1374.5,2548,1364,2561.2,1349.4,2562.8z"/>
	<path class="st5" d="M580.6,2653c-15.3,0-28.6-11.5-30.3-27.1L495,2135.3c-0.3-2.8,1.7-5.4,4.5-5.7l816.1-91.9
		c2.9-0.3,5.4,1.7,5.7,4.5l55.3,490.8c0.9,8-1.4,16-6.4,22.3c-5.1,6.3-12.3,10.3-20.3,11.2L584,2652.8
		C582.9,2653,581.7,2653,580.6,2653z M502.7,2136.8l55,488.3c1.4,12.6,12.8,21.8,25.5,20.3l765.8-86.3l0.4,3.7l-0.4-3.7
		c6.1-0.7,11.5-3.7,15.3-8.5s5.5-10.8,4.8-16.8l-55-488.5L502.7,2136.8z"/>
	<path class="st10" d="M1313.5,2562.8l-692.4,86.3c-14.7,1.7,214.6-292.4,212.9-307.2l-335.3-207.1c-0.1-0.8,0.5-1.5,1.2-1.6
		l816.1-91.9c0.8-0.1,1.5,0.5,1.6,1.2l-279.2,276.3C1040,2333.5,1328.1,2561.2,1313.5,2562.8z"/>
	<g>
		<path class="st11" d="M499.9,2133.3l337.5-333.7c20.1-20,51.3-23.5,75.4-8.6l401.1,249.1c0.7,0.4,0.4,1.5-0.4,1.6l-815,91.8"/>
		<path class="st5" d="M499,2137.2l-0.6-5.5l-1-1l0.8-0.8v-0.1h0.1L834.8,1797c21.4-21.2,54.3-25,80-9.1l401.1,249.1
			c1.7,1,2.5,3,2.1,4.9s-2,3.3-3.9,3.6L499,2137.2z M880.5,1785.5c-14.8,0-29.4,5.7-40.5,16.7l-329.8,326.2l794.7-89.5l-394.1-244.7
			C901.4,1788.4,891,1785.5,880.5,1785.5z"/>
	</g>
	<path class="st10" d="M499.9,2133.3l337.5-333.7c20.1-20,51.3-23.5,75.4-8.6l401.1,249.1c0.7,0.4,0.4,1.5-0.4,1.6l-815,91.8"/>
	<g>
		<path class="st11" d="M874.7,2290.5L621,2643.4l692.4-78l-325.8-287.7C953.7,2247.8,901.2,2253.7,874.7,2290.5z"/>
		<path class="st5" d="M613.1,2648.1l258.6-359.8l3,2.2l-3-2.2c13.2-18.4,33.7-30.4,56.3-32.9c22.5-2.5,45.2,4.6,62.2,19.6
			l332.1,293.2L613.1,2648.1z M936.9,2262.4c-2.7,0-5.4,0.1-8.1,0.5c-20.4,2.3-39,13.2-51,29.9l-248.8,346l675.7-76.1l-319.6-282.1
			C971.8,2268.8,954.6,2262.4,936.9,2262.4z"/>
	</g>
	<g>
		<path class="st6" d="M541.1,1891.6l533.4-60.1c35-3.9,66.1,17.5,69.5,47.8l34.3,304.3L1030,2319.9L834,2342l-193.6-121.1
			l-33.2-294.8L541.1,1891.6z"/>
		<path class="st5" d="M833.1,2345.8l-196.2-122.7l-33.2-294.6l-50.8-42l521.2-58.7c17.8-2,35.2,2.1,49.1,11.7
			c14,9.7,22.7,23.7,24.5,39.4l34.5,306.1l-150.6,138.4L833.1,2345.8z M643.9,2218.7l191,119.4l193.5-21.8l146-134.2l-34.1-302.4
			c-1.5-13.6-9.1-25.7-21.3-34.1c-12.4-8.5-28-12.2-44-10.4l-521.3,58.7l57,29.8L643.9,2218.7z"/>
	</g>
	<path class="st10" d="M874.7,2260.1L621,2643.5l692.4-78l-325.8-318.1C953.7,2217.3,901.2,2223.3,874.7,2260.1z"/>
	<path class="st7" d="M874.3,2290.1L620.6,2643l692.4-78l-325.8-287.7C953.3,2247.4,900.8,2253.3,874.3,2290.1z"/>
	<path class="st5" d="M613.1,2648.1l258.6-359.8l3,2.2l-3-2.2c13.2-18.4,33.7-30.4,56.3-32.9c22.5-2.5,45.2,4.6,62.2,19.6
		l332.1,293.2L613.1,2648.1z M936.9,2262.4c-2.7,0-5.4,0.1-8.1,0.5c-20.4,2.3-39,13.2-51,29.9l-248.8,346l675.7-76.1l-319.6-282.1
		C971.8,2268.8,954.6,2262.4,936.9,2262.4z"/>
	<path class="st12" d="M899.3,2368.6L713,2627.8l508.5-57.3l-239.3-211.3C957.3,2337.3,918.7,2341.6,899.3,2368.6z"/>
	<g>
		<line class="st9" x1="500.2" y1="2134" x2="834" y2="2342"/>
		
			<rect x="663.4" y="2041.5" transform="matrix(0.5289 -0.8487 0.8487 0.5289 -1585.1193 1620.5583)" class="st5" width="7.5" height="393.2"/>
	</g>
	<g>
		<line class="st9" x1="1317.5" y1="2041.9" x2="1038.4" y2="2318.9"/>
		
			<rect x="981.5" y="2176.8" transform="matrix(0.7096 -0.7047 0.7047 0.7096 -1194.3344 1463.464)" class="st5" width="393.2" height="7.5"/>
	</g>
	<g>
		<path class="st8" d="M621.9,2061.9l-93.1,10.5l-15-132.8c-2.8-24.5,14.9-46.7,39.4-49.4l4.2-0.5c24.5-2.8,46.7,14.9,49.4,39.4
			L621.9,2061.9z"/>
		<path class="st5" d="M525.6,2076.6L510.2,1940c-1.4-12.9,2.2-25.5,10.3-35.6s19.6-16.5,32.4-17.9l4.2-0.5
			c12.9-1.4,25.5,2.2,35.6,10.3c10.1,8.1,16.5,19.6,17.9,32.4l15.4,136.5L525.6,2076.6z M562.6,1893.2c-1.6,0-3.1,0.1-4.7,0.3
			l-4.2,0.5c-10.9,1.2-20.6,6.6-27.4,15.2c-6.8,8.6-9.9,19.3-8.7,30.1l14.5,129.1l85.7-9.7l-14.5-129.1
			c-1.2-10.9-6.6-20.6-15.2-27.4C580.8,1896.3,571.9,1893.2,562.6,1893.2z"/>
	</g>
	<path class="st5" d="M685.1,1992.8c-1.9,0-3.5-1.4-3.7-3.3c-0.2-2,1.2-3.9,3.3-4.1l386.5-43.5c2.1-0.2,3.9,1.2,4.1,3.3
		c0.2,2-1.2,3.9-3.3,4.1l-386.5,43.5C685.4,1992.8,685.3,1992.8,685.1,1992.8z"/>
	<path class="st5" d="M699.9,2124.2c-1.9,0-3.5-1.4-3.7-3.3c-0.2-2,1.2-3.9,3.3-4.1l386.5-43.5c2-0.2,3.9,1.2,4.1,3.3
		c0.2,2-1.2,3.9-3.3,4.1l-386.5,43.5C700.2,2124.2,700.1,2124.2,699.9,2124.2z"/>
	<path class="st5" d="M692.4,2057.7c-1.9,0-3.5-1.4-3.7-3.3c-0.2-2,1.2-3.9,3.3-4.1l167-18.8c2-0.2,3.9,1.2,4.1,3.3
		c0.2,2-1.2,3.9-3.3,4.1l-167,18.8C692.7,2057.7,692.6,2057.7,692.4,2057.7z"/>
	<path class="st5" d="M903.2,2034c-1.9,0-3.5-1.4-3.7-3.3c-0.2-2,1.2-3.9,3.3-4.1l175.7-19.8c2.1-0.2,3.9,1.2,4.1,3.3
		c0.2,2-1.2,3.9-3.3,4.1L903.6,2034C903.4,2034,903.3,2034,903.2,2034z"/>
	<path class="st5" d="M708.3,2198.7c-1.9,0-3.5-1.4-3.7-3.3c-0.2-2,1.2-3.9,3.3-4.1l167-18.8c2-0.2,3.9,1.2,4.1,3.3
		c0.2,2-1.2,3.9-3.3,4.1l-167,18.8C708.6,2198.7,708.5,2198.7,708.3,2198.7z"/>
	<g>
		<g>
			<g>
				<path class="st13" d="M1804.4,2327.7c-23.2-40.2-74.6-54-114.9-30.8c-40.2,23.2-54,74.6-30.8,114.9c0.9,1.5,1.9,3,2.9,4.4
					l-0.2,0.1c0,0,38.7,56.6,139.8,74.1c0,0,35.2-70.4,13.2-135.2C1812.7,2345.8,1809.5,2336.5,1804.4,2327.7z"/>
				<path class="st13" d="M1765.7,2350c10.9,18.9,4.4,43-14.4,53.8c-18.9,10.9-43,4.4-53.8-14.4s-4.4-43,14.4-53.8
					C1730.7,2324.7,1754.8,2331.2,1765.7,2350z"/>
			</g>
			<g>
				<path class="st13" d="M1507.7,1827.5c6.2,17.7,15.6,41.3,27.9,61.9c8.2,13.8,24.6,20.3,39.9,15.5c30-9.4,81.9-26.8,118.5-45
					c14.1-7,21.6-22.6,18.3-38c-3.8-17.6-9.7-41.7-17.6-63.2c-5.9-16.1-23-25.3-39.8-21.4c-29.9,6.9-80.1,21.4-131.1,48.8
					C1509.1,1794,1502.2,1811.6,1507.7,1827.5z"/>
				<polyline class="st13" points="1508.5,1803 1615.1,1828 1670.6,1737.3 				"/>
				<line class="st13" x1="1553.3" y1="1904.3" x2="1573.7" y2="1818.3"/>
				<line class="st13" x1="1637.3" y1="1791.6" x2="1710.2" y2="1843"/>
			</g>
			<g>
				<circle class="st13" cx="3429.5" cy="1694.2" r="82.5"/>
				<line class="st13" x1="3429.5" y1="1611.6" x2="3429.5" y2="1776.7"/>
				<line class="st13" x1="3347" y1="1690.9" x2="3512" y2="1690.9"/>
				<path class="st13" d="M3349.9,1672.3c0,0,20.9-22.7,79.6-22.7c58.7,0,79.6,22.7,79.6,22.7"/>
				<path class="st13" d="M3349.9,1717.9c0,0,20.9,22.7,79.6,22.7c58.7,0,79.6-22.7,79.6-22.7"/>
				<path class="st13" d="M3398.3,1617.8c0,0-18.7,22.1-18.7,76.4s22.8,79.3,22.8,79.3"/>
				<path class="st13" d="M3460.1,1617.8c0,0,18.7,22.1,18.7,76.4s-22.8,79.3-22.8,79.3"/>
			</g>
			<g>
				<circle class="st13" cx="1897.2" cy="1024.3" r="83.3"/>
				<circle class="st13" cx="1897.2" cy="1024.3" r="67.2"/>
				<polygon class="st13" points="1926.9,1096.2 1937.3,1122.1 1954.8,1112.8 1940.9,1089 				"/>
				<path class="st13" d="M1937.2,1116.4l12.8-7c5.7-3.1,12.7-1.4,16.4,3.9l47,68.1c9.1,13.1,5,31.2-8.8,39.2l0,0
					c-14,8.1-31.9,2.4-38.6-12.3l-34.3-75.5C1929,1126.7,1931.4,1119.6,1937.2,1116.4z"/>
				<g>
					<path class="st13" d="M1945.9,1030.5c-3.3,0-6-2.6-6.2-5.9c-1.2-22.7-20-40.4-42.8-40.4c-3.4,0-6.2-2.8-6.2-6.2
						s2.8-6.2,6.2-6.2c29.3,0,53.5,22.9,55.1,52.1c0.2,3.4-2.4,6.3-5.8,6.5C1946.1,1030.5,1946,1030.5,1945.9,1030.5z"/>
				</g>
				<path class="st13" d="M1946.6,1049.4c0,4.4-3.6,8-8,8s-8-3.6-8-8s3.6-8,8-8C1943,1041.5,1946.6,1045,1946.6,1049.4z"/>
			</g>
			<path class="st13" d="M2865.3,2216.6l-36.5-85.9c15.7-11.7,22.5-31.6,15.2-48.7c-7.7-18-28.3-26.9-48.6-22.3l20.2,47.4l-18.2,7.8
				l-20-46.9c-16.1,11.7-23.2,31.8-15.8,49.2c6.9,16.1,24.1,24.9,42.2,23.3l37.3,87.6c-13.7,11.9-19.3,30.4-12.5,46.5
				c7.4,17.3,26.8,26.2,46.4,22.7l-20-46.9l18.2-7.8l20.2,47.4c17.5-11.4,25.3-32.5,17.7-50.5
				C2903.7,2222.3,2884.7,2213.5,2865.3,2216.6z"/>
			<g>
				<ellipse class="st13" cx="3417.2" cy="2294.4" rx="46.6" ry="46.6"/>
				<path class="st13" d="M3500.4,2279.7l-16.4-2.8c-1.5-5.7-3.7-11.2-6.5-16.3l11.7-15.6c2.8-3.7,2.7-8.4,0-11.2l-9.3-9.3
					c-2.7-2.7-7.3-2.8-11-0.2l-15.8,11.1c-6-3.6-12.6-6.4-19.6-8.1l-3.1-17.8c-0.8-4.4-4.1-7.6-7.9-7.6h-13.1c-4,0-7.3,3.3-8,7.9
					l-2.6,18.1c-6.2,1.7-12,4.3-17.4,7.6l-15.9-11.2c-3.7-2.6-8.3-2.5-11,0.2l-9.3,9.3c-2.8,2.8-2.8,7.5,0,11.2l11.8,15.8
					c-2.8,4.9-4.9,10.2-6.4,15.8l-17.9,3.1c-4.4,0.8-7.6,4.1-7.6,7.9v13.1c0,3.9,3.3,7.3,7.9,8l17.4,2.5c1.6,6.2,4,12.1,7.1,17.6
					l-12.3,16.4c-2.8,3.7-2.7,8.4,0,11.2l9.3,9.3c2.7,2.7,7.3,2.8,11,0.2l17.1-12c5,2.9,10.4,5.2,16,6.8l2.8,19.7
					c0.7,4.6,4,7.9,8,7.9h13.1c3.8,0,7.2-3.2,7.9-7.6l3.4-19.4c6.5-1.6,12.5-4.1,18.1-7.3l17,11.9c3.7,2.6,8.3,2.5,11-0.2l9.3-9.3
					c2.8-2.8,2.8-7.5,0-11.2L3477,2329c3.2-5.6,5.7-11.6,7.3-18l15.8-2.3c4.6-0.7,7.9-4,7.9-8v-13.1
					C3508,2283.8,3504.8,2280.5,3500.4,2279.7z"/>
			</g>
		</g>
		<g>
			<path class="st14" d="M2836,2780.9c-22.4,80.6-76.1,82.1-113.7,94.6c0,0,11-299.9-44.2-515.1c-43.1-168.2-75.2-226.2-87.1-243.5
				c23.9,30.2,49.8,65,75.8,102.5c0,0.1,0,0.1,0,0.1c81.8,118.7,162.9,265.8,175,387.5C2850,2688.4,2846.4,2743.3,2836,2780.9z"/>
			<path class="st15" d="M2836,2780.9c-22.4,80.6-76.1,82.1-113.7,94.6c0,0,11-299.9-44.2-515.1c-43.1-168.2-75.2-226.2-87.1-243.5
				c23.9,30.2,49.8,65,75.8,102.5c0,0.1,0,0.1,0,0.1c0.6,17.8,11.1,49.5,40.5,104c92.9,172.9,68.4,425.5,89.9,436.3
				c21.4,10.8,2.4,16.1,30.3,18.9C2830.4,2779.1,2833.3,2779.8,2836,2780.9z"/>
		</g>
		<g>
			<path class="st14" d="M2160.3,2225.6c26.7-40.2,53.8-77.4,78.9-109.3c-11.6,16.6-43.8,73.9-87.5,244.1
				c-55.2,215.3-44.2,515.1-44.2,515.1c-55.2-18.4-162.8,12.8-119.6-268.6c14.4-93.4,64.1-202.7,122.8-302.4
				C2126.8,2277.4,2143.5,2250.9,2160.3,2225.6z"/>
			<path class="st15" d="M2160.3,2225.6c26.7-40.2,53.8-77.4,78.9-109.3c-11.6,16.6-43.8,73.9-87.5,244.1
				c-55.2,215.3-44.2,515.1-44.2,515.1c-55.2-18.4-162.8,12.8-119.6-268.6c14.4-93.4,64.1-202.7,122.8-302.4
				c-5.8,25.7-24.4,56.2-31.7,74.7c-14.6,36.5-28.7,73.2-39.2,111.2c-22.2,80.3-26.8,170.2,13.1,243.2c3.1,5.6,7.1,11.7,13.5,12.9
				c13.5,2.5,18.9-16.7,18.8-30.5c-1.2-89.4,11.9-178.3,25-266.8C2121.4,2373.6,2133.1,2296.6,2160.3,2225.6z"/>
		</g>
		<g>
			<path class="st6" d="M2746,2869.9h-645.8c-14.7-71.6-1.6-344.2,33.7-500.2c43.5-192.3,134.5-357,279.1-357
				c74.6,0,134.1,38.6,181.9,108.6c44.9,65.7,79.6,159.1,106.9,274.3C2761.7,2648.4,2746,2869.9,2746,2869.9z"/>
			<path class="st16" d="M2462,2822.1c31.2,19.5,64.9,34.6,99.5,47.7h-461.3c-14.7-71.6-1.6-344.2,33.7-500.2
				c43.5-192.3,134.5-357,279.1-357c74.6,0,134.1,38.6,181.9,108.6c-8.4,49.3-58.1,144-63.4,137.9c-17.1-19.8,1.4-52.6-11.9-74.9
				c-10.5-17.6-37.2-20-55.7-10.7c-18.6,9.3-31,26.9-42.6,43.9c-14.5-11-29-22-43.6-32.9c-7.7-5.8-16.5-11.9-26.2-10.7
				c-11.9,1.4-19.2,13.1-24.5,23.6c-52.2,104.7-75,224.8-53.8,339.4C2294.3,2651.2,2361.4,2759.1,2462,2822.1z"/>
			<g>
				<path class="st14" d="M2424.4,2875.2c-0.1,0-0.1,0-0.2,0c-3-0.1-5.4-2.6-5.3-5.5c11.2-332.3-7.3-686.7-7.5-690.3
					c-0.2-3,2.2-5.5,5.2-5.6c3-0.2,5.6,2.1,5.8,5.1c0.2,3.5,18.7,358.4,7.5,691.2C2429.8,2872.9,2427.3,2875.2,2424.4,2875.2z"/>
			</g>
		</g>
		<path class="st14" d="M2243.7,2110.6c-1.3,1.8-2.8,3.5-4.2,5.3C2241.7,2112.8,2243.2,2111.2,2243.7,2110.6z"/>
		<path class="st15" d="M2243.7,2110.6c-1.3,1.8-2.8,3.5-4.2,5.3C2241.7,2112.8,2243.2,2111.2,2243.7,2110.6z"/>
		<path class="st14" d="M2586.1,2110.6c0.6,0.6,2,2.2,4.2,5.3C2588.9,2114.1,2587.5,2112.4,2586.1,2110.6z"/>
		<path class="st15" d="M2586.1,2110.6c0.6,0.6,2,2.2,4.2,5.3C2588.9,2114.1,2587.5,2112.4,2586.1,2110.6z"/>
		<g>
			<path class="st17" d="M2514.2,2100.2c12.8-11.6,25.6-23.7,33.7-38.9c8.1-15.2,10.9-34.3,3.1-49.7c-12.5-24.5-44.6-29.9-72.1-31.4
				s-55-2.1-82.5-1.8c-22.5,0.3-45.1,1.1-67,6c-26,5.7-54.3,21.5-57.1,48c-2.7,25,18.5,45.4,37.8,61.6
				c16.7,13.9,33.3,27.9,50.4,41.3c12.1,9.6,36.7,35.9,52.3,37.7c14.4,1.6,40.2-22.3,51.1-30.5
				C2481.4,2129.3,2498,2114.9,2514.2,2100.2z"/>
			<g>
				<path class="st18" d="M2529.8,2055.9c0,0-39.6,117.8-116.8,110.4c-77.3-7.3-116.8-106.7-116.8-106.7
					c35-67.2,21.2-159.1,21.2-159.1l190.4,12.9c-0.4,8.3-0.7,16.1-0.7,23.5c-0.4,56.8,9.8,90.6,16.7,107
					C2527.2,2052.1,2529.8,2055.9,2529.8,2055.9z"/>
				<path class="st19" d="M2529.8,2055.9c0,0-39.6,117.8-116.8,110.4c-77.3-7.3-116.8-106.7-116.8-106.7
					c35-67.2,21.2-159.1,21.2-159.1l190.4,12.9c-0.4,8.3-0.7,16.1-0.7,23.5c-28.2,5.1-54.6,10.5-85.1,7.7c-14.5-1.3-30.7-3.2-41.9,6
					c-10.2,8.4-12.2,23-13.5,36.1c-2.2,21.6-4.3,43.2-6.5,64.7c-0.6,5.2-1,11,1.8,15.5c4.9,8.1,16.6,7.9,24.6,12.8
					c9.9,6.1,13.4,19.3,22.9,25.8c12.7,8.7,29.8,2.4,43.8-4c20.7-9.5,42.1-19.6,56.8-37c5.2-6.2,9.7-13.4,13.8-20.8
					C2527.2,2052.1,2529.8,2055.9,2529.8,2055.9z"/>
			</g>
			<path class="st14" d="M2316.9,1990.3c-7.5,3.2-22.8,12.5-26.3,35.3c-1.5,9.9,1.2,20.3,7.2,30.7c12.3,21.5,38.5,42.9,71,59.5
				c26.5,13.6,40.2,28.9,46.8,43.1c1.3,2.7,2.3,5.3,3.1,7.8c2.9,9.3,3,17.8,2.2,24.6c-1.1,9.2-4,15.1-4,15.1c-0.7-1.4-1.3-2.8-2-4.1
				c0,0,0-0.1-0.1-0.1c-19-35.8-65.4-63.8-97.4-43.1c-33.3,21.5-24.8,85.6-31.3,78.2c-6.5-7.4-53.4-104.9-39.6-178.5
				c11.6-62.1,58.2-80.4,72.3-84.5L2316.9,1990.3z"/>
			<path class="st14" d="M2510.1,1989.8c9.5,2.2,25.9,8.9,29.1,30.2c1.6,10.4-2.4,22.4-10.2,34.7c-14.8,23.4-43.5,47.9-74.8,64.8
				c-22,11.9-33.2,26.1-38.6,39.3c-1,2.5-1.9,5.1-2.5,7.5c-5,19,1,34.4,1.6,35.8c0.1,0.1,0.1,0.1,0.1,0.1c1.8-3.8,3.8-7.4,6.1-10.9
				c0,0,0,0,0-0.1c20.7-31.6,61.7-51.6,91.7-32.2c33.3,21.5,24.8,85.6,31.2,78.2c6.5-7.4,53.4-104.9,39.6-178.5
				c-11.1-59.1-57.2-78.5-74.9-83.8L2510.1,1989.8z"/>
		</g>
		<g>
			<path class="st20" d="M1924.4,2869h137.3c0,0,6.2-85.5-73.3-81.1C1933.6,2790.9,1926.3,2838.6,1924.4,2869z"/>
			<g>
				<g>
					<path class="st18" d="M2066.4,2805.2c-1.2,11.6-7.3,23.7-15.6,23.1c-6.1-0.5-7.1-19.9-3.3-32.4c1.8-6.1,4.6-10.5,8.6-10.5
						C2064.6,2785.2,2067.4,2795,2066.4,2805.2z"/>
					<path class="st18" d="M2046.8,2794.3c-1.8,15.5-8.9,33.9-18,33.9c-6.6,0.1-9.5-8.7-10.2-20.4c0,0,0,0,0-0.1
						c-0.3-6.9,0.1-14.7,1-22.5c0.1-0.9,0.3-1.9,0.4-2.7c0.2-1.2,0.6-2.3,0.9-3.4c4.9-14.6,18.8-13.5,24.3-3
						C2047.3,2780,2047.7,2786.8,2046.8,2794.3z"/>
					<path class="st18" d="M2021.2,2786c0,7.4-0.9,15.1-2.6,21.7c0,0.1,0,0.1,0,0.1c-3,11.6-8.4,20.4-15.9,20.4
						c-13,0.1-14.3-23.4-14.3-40.3v-5.8c0-2,0-4.1,0.1-6.2c0.4-13.2,3.4-24.8,19.4-21.8c7.8,1.4,12,12.2,13,25.1
						C2021.1,2781.4,2021.2,2783.7,2021.2,2786z"/>
					<path class="st18" d="M1988.4,2782.1v0.8c0,16.9-5,39.1-14.5,39.1c-14.5,0-14.4-13.4-15.4-30.6c-0.1-1.3-0.1-2.6-0.2-4
						c-1.3-19.1,9.6-36.2,26.1-22.6c1.9,1.5,3.1,5.6,3.6,10.9C1988.2,2777.6,1988.4,2779.8,1988.4,2782.1z"/>
					<path class="st18" d="M1946,2822c-13.8-0.1-16.7-18-12.5-30.7c2.2-7,6.6-12.5,12.5-12.5c5.6,0,9.2,5.1,10.8,11.8
						C1959.9,2803.4,1956,2822.1,1946,2822z"/>
				</g>
				<path class="st21" d="M1956.8,2790.6c3.1,12.8-0.8,31.5-10.8,31.4c-13.8-0.1-16.7-18-12.5-30.7
					C1940.7,2787.4,1948.8,2787.3,1956.8,2790.6z"/>
				<path class="st21" d="M2046.8,2794.3c-1.8,15.5-8.9,33.9-18,33.9c-6.6,0.1-9.5-8.7-10.2-20.4c-3,11.6-8.4,20.4-15.9,20.4
					c-13,0.1-14.3-23.4-14.3-40.3v-5c0,16.9-5,39.1-14.5,39.1c-14.5,0-14.4-13.4-15.4-30.6c0.6,0.3,1.2,0.6,1.8,0.9
					c3.4-5.7,6.2-12.1,12-16.1c4.6-3.1,11.3-3.6,15.7-0.6c0.2,0.1,0.3,0.2,0.5,0.3c0.8,0.6,1.6,1.4,2.2,2.3c3.7-5.8,11.3-8.7,17.9-7
					c5.4,1.4,9.8,6,11.4,11.3c0.4,1.2,0.7,2.4,0.7,3.6c0.2-0.1,0.3-0.2,0.4-0.2C2029.9,2780.9,2042.4,2785.6,2046.8,2794.3z"/>
				<path class="st21" d="M2066.4,2805.2c-1.2,11.6-7.3,23.7-15.6,23.1c-6.1-0.5-7.1-19.9-3.3-32.4c0.4,1,0.7,2.2,0.8,3.4
					c4.2-1.9,9.5-1,13,2C2063,2802.6,2064.4,2804.5,2066.4,2805.2z"/>
			</g>
		</g>
		<g>
			<g>
				<path class="st18" d="M2829.5,2875.2c-5.1,0-8.1-6.6-8.8-14.6c-0.7-7.7,0.8-16.8,4.6-22.6c0.2-0.3,0.3-0.6,0.6-0.9
					c2.2-3,5.2-4.9,8.9-4.9c6.4,0,9.6,5.3,10.3,12.2C2846.5,2857.2,2839.6,2875.2,2829.5,2875.2z"/>
				<path class="st18" d="M2825.8,2837.2c0,0.3,0,0.6-0.1,0.9c-0.5,7.3-2.3,15.6-5.1,22.5c-3.3,8.3-7.9,14.6-13.3,14.6
					c-6.6,0.1-9.5-8.7-10.2-20.4c0,0,0,0,0-0.1c-0.3-6.9,0.1-14.7,1-22.5c0.3-2.3,0.7-4.3,1.3-6.1c0.2-0.7,0.4-1.3,0.7-1.8
					c5.3-12.6,18.4-11.2,23.6-1.2C2825.6,2826.3,2826.2,2831.4,2825.8,2837.2z"/>
				<path class="st18" d="M2797.3,2854.7C2797.3,2854.8,2797.3,2854.8,2797.3,2854.7c-3,11.6-8.4,20.5-15.9,20.5
					c-8.5,0.1-12-10-13.4-21.7c-0.7-6.2-0.9-12.8-0.9-18.7c0-3.5-0.1-7.2,0.1-10.8c0.1-1,0.1-2.1,0.2-3.1
					c0.7-12.4,4.1-22.7,19.3-19.9c7.5,1.4,11.6,11.4,12.9,23.6c0.1,0.5,0.1,1,0.1,1.5C2800.4,2835.5,2799.5,2845.9,2797.3,2854.7z"
					/>
				<path class="st18" d="M2767.9,2853.5c-2.1,9.7-6.8,16.9-15.3,15.5c-8.3-1.3-11.8-5.8-13.5-12.6c-1.3-5.3-1.5-12.1-2-20
					c0-0.4,0-0.7-0.1-1.1c0-0.3-0.1-0.7-0.1-1c-1.3-19.1,9.6-36.2,26.1-22.6c1.7,1.4,3.1,4.7,4.3,9.3c0.2,0.8,0.4,1.7,0.6,2.6
					C2769.5,2832.3,2770,2844.1,2767.9,2853.5z"/>
				<path class="st18" d="M2739.1,2856.4c-1.7,7.6-6.4,13.5-14.5,12.6c-12.7-1.4-16.1-16.4-13.3-28.3c1.9-8.2,6.7-14.9,13.3-14.9
					c5.6,0,9.8,4,12.4,9.5c0.1,0.1,0.1,0.2,0.2,0.4C2739.9,2841.8,2740.6,2849.8,2739.1,2856.4z"/>
			</g>
			<path class="st21" d="M2829.5,2875.2c-5.1,0-8.1-6.6-8.8-14.6c-3.3,8.3-7.9,14.6-13.3,14.6c-6.6,0.1-9.5-8.7-10.2-20.4
				c-3,11.6-8.4,20.4-15.9,20.4c-8.5,0.1-12-10-13.4-21.7c-2.1,9.7-6.8,16.9-15.3,15.5c-8.3-1.3-11.8-5.8-13.5-12.6
				c-1.7,7.6-6.4,13.5-14.5,12.6c-12.7-1.4-16.1-16.4-13.3-28.3c0.1-0.1,0.3-0.1,0.4-0.2c1.9-1.3,25.9-10.7,25.2-3
				c0.1-0.3,0.1-0.7,0.1-1c0-0.2,0.1-0.4,0.1-0.7c0.9-7.2,4.1-14.5,10.4-18c6.8-3.8,17.4-0.4,18.5,7.2l1-0.8
				c0.2-0.2,0.5-0.4,0.7-0.6c4.5-3.6,9.5-6.8,15.2-7.3c6.5-0.7,13.7,3.3,14.6,9.7c0.6-0.5,1.2-0.9,1.9-1.2c0.3-0.2,0.6-0.3,0.8-0.3
				c5.8-2,13.1,2.2,17,7.6c1,1.5,2,3,3.4,4.2c1.3,1,2.9,1.5,4.5,1.9c0.2,0,0.3,0.1,0.5,0.1c1.4,0.3,2.8,0.4,4.2,0.7
				c5.4,0.8,10.5,2.8,15.1,5.7C2846.5,2857.2,2839.6,2875.2,2829.5,2875.2z"/>
		</g>
		<path class="st22" d="M2243.1,1706.4c2.7,32.2-13.4,59.8-36,61.7c-22.5,1.9-43-22.7-45.6-54.9c-2.7-32.2,13.4-59.8,36-61.7
			C2220,1649.6,2240.5,1674.2,2243.1,1706.4z"/>
		
			<ellipse transform="matrix(8.247000e-02 -0.9966 0.9966 8.247000e-02 728.1143 4210.3896)" class="st22" cx="2650.7" cy="1709.8" rx="58.5" ry="40.9"/>
		<path class="st20" d="M2235.4,1625.8c0,0-25.8-7.7-38.6,13.5c-12.9,21.2,3.7,117.7,11,137.1c7.4,19.3,44.2,13.8,47.8,12
			C2259.4,1786.4,2235.4,1625.8,2235.4,1625.8z"/>
		<path class="st20" d="M2617.5,1625.8c0,0,25.8-7.7,38.6,13.5c12.9,21.2-3.7,117.7-11,137.1c-7.4,19.3-44.2,13.8-47.8,12
			C2593.6,1786.4,2617.5,1625.8,2617.5,1625.8z"/>
		<path class="st23" d="M2211.4,1649.6c0,0-22.4-275.9,30.2-300.5c52.6-24.6,336.7-11.3,387.3,14s35.4,138.1,13.2,303.6"/>
		<g>
			<path class="st24" d="M2637.5,1522.4c-10.2,95.7-24,270.4-47.9,328.4c-8.3,20.1-16.4,35-25.8,45.8c-17.5,20.1-39.4,26-75.4,26
				c-55.2,0-175.1,8.8-205.9-32.2c-8.9-11.9-38.9-55.2-49.9-172.9c-11-117.7-9.2-219-4.6-252.1s36.8-92,126.9-123.2
				s198.7,24.8,243.8,55.2c0.4,0.3,0.9,0.6,1.4,0.9C2643.9,1427.6,2647.5,1427.7,2637.5,1522.4z"/>
			<path class="st25" d="M2535.5,1612.9c-1.5,20.4,1.4,41.1-1.4,61.5c-2.4,17.4-8.8,34.1-15.2,50.5c-2.2,5.5-4.8,11.6-10.3,14
				c-4.6,1.9-10,0.8-14.6,2.6c-8.9,3.6-10,15.3-14.1,24c-4.3,9.2-12.9,15.5-19.6,23.1c-17.2,19.3-22.1,48.6-12.4,72.6
				c9.8,24,33.9,41.3,59.7,43.2c18.9,1.3,37.4-5.1,56.1-7.7c-17.5,20.1-39.4,26-75.4,26c-55.2,0-175.1,8.8-205.9-32.2
				c-8.9-11.9-38.9-55.2-49.9-172.9c-11-117.7-9.2-219-4.6-252.1s36.8-92,126.9-123.2s198.7,24.8,243.8,55.2
				c0.4,0.3,0.9,0.6,1.4,0.9c3.4,32.5,7.8,64.4-7,95.3c-9.4,19.8-25.2,35.8-36.8,54.5C2544.4,1567.6,2537.2,1590,2535.5,1612.9z"/>
		</g>
		<g>
			<path class="st18" d="M2578.2,1724.2c-0.6,1.9-1.1,3.8-1.7,5.4c-19.8,56.2-80,45.5-78.7-14.5l-140,5.5c0,0,4.1,49.7-42.8,52.4
				c-46.9,2.8-53.2-131.1-44.2-215.3c8.9-84.2,40.7-150.4,104.9-168.3c64.1-17.9,180,8.3,202.8,64.9c3.4,8.6,6.2,19.6,8.3,32.5
				C2598.4,1556.2,2591.9,1677.5,2578.2,1724.2z"/>
			<path class="st19" d="M2569.7,1731.3c3.1-2,5.8-4.5,8.4-7.1c-0.6,1.9-1.1,3.8-1.7,5.4c-19.8,56.2-80,45.5-78.7-14.5l-140,5.5
				c0,0,4.1,49.7-42.8,52.4c-46.9,2.8-53.2-131.1-44.2-215.3c8.9-84.2,40.7-150.4,104.9-168.3c64.1-17.9,180,8.3,202.8,64.9
				c3.4,8.6,6.2,19.6,8.3,32.5c-8.2,5.2-16.7,9.2-25.3,9.1c-14.4-0.2-27.8-6.8-40.7-13.1c-22-10.8-44.5-21.3-68.7-25.7
				c-24.1-4.5-50.3-2.3-71,10.8c-22.1,14-35.3,38.6-44.4,63.1c-15.2,40.5-22.1,84.1-20.4,127.3c0.5,11.7,2.8,25.3,13.2,30.6
				c11.8,6,25.3-2.4,36.1-9.9c24.1-16.9,51-32.1,80.4-33.4c29.4-1.4,61.3,14.8,69.6,43.1c2.9,10,2.8,20.9,7.5,30.1
				C2531.2,1734.9,2554.5,1741.3,2569.7,1731.3z"/>
		</g>
		<g>
			<path class="st20" d="M2614.4,1784.6c0,0-2.8,20.2-5.5,25.8c-2.8,5.5-110.4-6.4-134.3-16.6l-3.7,10.1c0,0,60.7,15.6,104.9,17.5
				c44.2,1.8,46.9,2.8,47.8-38.6L2614.4,1784.6z"/>
			<path class="st20" d="M2483.3,1798.9c-2.1,8.6-12.3,13.5-22.6,11c-10.4-2.6-17-11.6-14.9-20.3c2.1-8.6,12.3-13.5,22.6-11
				C2478.7,1781.2,2485.4,1790.2,2483.3,1798.9z"/>
		</g>
		<g>
			<path class="st24" d="M2575.8,1482.8c-9.8,3.1-56.1-20.3-111-34.1c-55-13.8-150.4-92.2-116.5-142.6c19.6-29,51.7-44.4,85.8-47.9
				h0.1c51.2-5.1,107,16.8,132.4,59.8c7.3,12.4,12.7,25.2,16.4,38C2601.8,1418.6,2584,1480.3,2575.8,1482.8z"/>
			<path class="st25" d="M2575.8,1482.8c-9.8,3.1-56.1-20.3-111-34.1c-55-13.8-150.4-92.2-116.5-142.6c19.6-29,51.7-44.4,85.8-47.9
				c-7.7,4.9-14.2,12.1-18.7,21.5c-9.9,20.9-4.7,48.1,12.3,63.9c14.8,13.7,35.8,18.3,52.8,29.1c16.9,10.7,29.7,27.4,47.3,37
				s44.4,8.4,52.7-9.8c5.4-11.8,0.8-25.6,1.6-38.5c0.1-1.8,0.4-3.6,1-5.4C2601.8,1418.6,2584,1480.3,2575.8,1482.8z"/>
		</g>
		<path class="st24" d="M2308.4,1571.3c14.4-2.1,25.4,2.7,32.7-9.1c7.3-11.8-5.3-24.7-43.1-16.4c-37.8,8.3-25.9,33.4-16,31.9
			C2292,1576.2,2302,1572.2,2308.4,1571.3z"/>
		<path class="st24" d="M2538.2,1571.3c-14.4-2.1-25.4,2.7-32.7-9.1c-7.3-11.8,5.3-24.7,43.1-16.4c37.8,8.3,25.9,33.4,16,31.9
			C2554.6,1576.2,2544.6,1572.2,2538.2,1571.3z"/>
		<g>
			<path class="st26" d="M2333,1631.4c0,10.9-4.3,19.8-9.7,19.8s-9.7-8.9-9.7-19.8s4.3-19.8,9.7-19.8S2333,1620.5,2333,1631.4z"/>
			<path class="st26" d="M2546.5,1631.4c0,10.9-4.3,19.8-9.7,19.8s-9.7-8.9-9.7-19.8s4.3-19.8,9.7-19.8S2546.5,1620.5,2546.5,1631.4
				z"/>
		</g>
		<path class="st27" d="M2464.7,1644.7c0.7,13.1-13.8,19.3-37.9,19.3c-1.9,0-3.7,0-5.4-0.1c-20.8-0.5-32.4-4.4-30.5-17.1
			c2-13.8,15.2-8.7,17.9-15.4c2.8-6.7,4.1-43.9,18.6-43.9c3.5,0,6.3,1.2,8.6,3.2c10.2,9.2,9.1,34.9,10.8,40.7
			C2448.9,1638.5,2464,1631.6,2464.7,1644.7z"/>
		<path class="st19" d="M2425.1,1619.9c0.9,4.4,2.9,8.7,2.3,13.2c-1.3,9.5-13.5,17.2-9.8,26.1c0.8,1.9,2.3,3.4,3.9,4.7
			c-20.8-0.5-32.4-4.4-30.5-17.1c2-13.8,15.2-8.7,17.9-15.4c2.8-6.7,4.1-43.9,18.6-43.9c3.5,0,6.3,1.2,8.6,3.2
			C2430.5,1601.6,2423.6,1612.9,2425.1,1619.9z"/>
		<path class="st28" d="M2376.2,1709.8h94.7c0,0,5.1,50.8-48.5,47.1C2368.8,1753.2,2376.2,1709.8,2376.2,1709.8z"/>
		<path class="st27" d="M2390.7,1722.7c0,0,0.2,28.3,33.3,28.3s33.1-30.4,33.1-30.4h22.8c0,0,4.1,47.6-55.9,47.6
			s-55.2-47.6-55.2-47.6L2390.7,1722.7z"/>
		<path class="st24" d="M2507.5,1720.6c-7.6,4.1-154.5,6.2-158.7,0c-3.9-5.7,14.4-33.6,66.9-39.7c3.9-0.4,8.1-0.8,12.4-1
			c52.1-2.3,78,24.9,80.4,36.3C2509.1,1718.3,2508.7,1720,2507.5,1720.6z"/>
		<path class="st25" d="M2507.5,1720.6c-7.6,4.1-154.5,6.2-158.7,0c-3.9-5.7,14.4-33.6,66.9-39.7c-7.5,12.1-8.8,25.6,10.5,31.4
			c26.4,7.9,54.8,2.8,82.3,3.9C2509.1,1718.3,2508.7,1720,2507.5,1720.6z"/>
		<g>
			<g>
				<rect x="2164.6" y="2790.9" class="st29" width="101.2" height="47.8"/>
				<rect x="2543.6" y="2790.9" class="st29" width="101.2" height="47.8"/>
			</g>
			<path class="st30" d="M2755.4,2432.1c0.2,56.7-2.3,139.8-14.7,225.8v0.1c-2.4,16.7-5.1,33.4-8.3,50.1c-3.6,18.8-7.7,37.5-12.4,56
				c-5.9,22.7-25.8,39.1-49.3,40.3c-88.8,4.9-316.9,14.2-533-3.9c-25.6-2.2-46-22-49-47.5c-8.1-69.5-21.1-210-10.5-328
				c3.5-39.4,34.4-70.9,73.7-75.6c19-2.3,41.8-4.7,67.9-7h0.1c18.9-1.7,39.5-3.2,61.7-4.5h0.1c105.1-6.1,244.8-7.1,399,10.8
				C2723,2353.7,2755.3,2389.4,2755.4,2432.1z"/>
			<path class="st31" d="M2732.4,2708c-3.6,18.8-7.7,37.5-12.4,56c-5.9,22.7-25.8,39.1-49.3,40.3c-88.8,4.9-316.9,14.2-533-3.9
				c-25.6-2.2-46-22-49-47.5c-8.1-69.5-21.1-210-10.5-328c3.5-39.4,34.4-70.9,73.7-75.6c32.7-3.9,76.8-8.3,129.6-11.4
				c-4.5,5.7-8.1,13.5-10.5,24.1c-17.3,75.1,4.6,156.7,51.4,218c46.8,61.3,116.7,102.9,191.3,122.4
				C2584.8,2721.2,2660,2720.7,2732.4,2708z"/>
			<path class="st32" d="M2451.9,2566.5c0,16.3-13.2,29.4-29.4,29.4s-29.4-13.2-29.4-29.4s13.2-29.4,29.4-29.4
				S2451.9,2550.2,2451.9,2566.5z"/>
			<path class="st30" d="M2707.3,2841.5v5.5c0,0.4,0,0.9-0.1,1.3c-0.7,8-7.4,14.3-15.6,14.3h-581.5c-8.6,0-15.6-7-15.6-15.6v-5.5
				c0-8.1,6.1-14.7,13.8-15.6c0.6-0.1,1.2-0.1,1.8-0.1h581.5C2700.3,2825.9,2707.3,2832.9,2707.3,2841.5z"/>
			<path class="st33" d="M2707.3,2848.4c-0.7,8-7.4,14.3-15.6,14.3h-581.5c-8.6,0-15.6-7-15.6-15.6v-5.5c0-8.1,6.1-14.7,13.8-15.6
				c-1.4,5.7,0.5,12.4,11,18.3C2140.3,2856.1,2550.9,2850.9,2707.3,2848.4z"/>
			<path class="st34" d="M2740.7,2657.9c14.2-263.5,4.2-284.7-98.6-299.4c-101.7-14.5-414.9-16-422.2-16c18.9-1.7,39.5-3.2,61.7-4.5
				h0.1c105.1-6.1,244.8-7.1,399,10.8c42.4,4.9,74.6,40.6,74.8,83.3C2755.6,2488.9,2753.1,2571.9,2740.7,2657.9z"/>
		</g>
		<g>
			<g>
				<path class="st35" d="M3069.7,2704.2c0,0-158.8-63-155.8-321.7C2913.9,2382.5,3107.1,2473.7,3069.7,2704.2z"/>
				<path class="st36" d="M3069.7,2704.2c0,0-158.8-63-155.8-321.7L3069.7,2704.2z"/>
			</g>
			<g>
				<path class="st35" d="M3076.3,2701.1c0,0-112.1-294.2,64.7-505.7c0,0,0,0,0.1,0v-0.1C3141.1,2195.3,3274.7,2515.9,3076.3,2701.1
					z"/>
				<path class="st36" d="M3141,2195.4l-64.8,505.7C3076.3,2701.1,2964.1,2406.8,3141,2195.4L3141,2195.4z"/>
			</g>
			<g>
				<path class="st35" d="M3283.8,2418.3c0,0,13.7,207.5-168,279.3v-0.1C3115.6,2691.8,3109.8,2505.8,3283.8,2418.3z"/>
				<path class="st36" d="M3283.8,2418.3l-168,279.2C3115.6,2691.8,3109.8,2505.8,3283.8,2418.3z"/>
			</g>
			<g>
				<path class="st37" d="M3232.6,2678.1c-0.6,3.9-1.1,8.1-1.8,12.6c-1.6,10.2-3.6,21.8-6.3,34.5c-1,4.9-2.2,10-3.5,15.2
					c-1,4.4-2.2,8.9-3.4,13.5c-5.9,22.2-13.6,46.3-23.9,70.5c-1.4,3.3-2.9,6.7-4.4,10c-7.5,16.6-23.2,28-41.4,29.9
					c-25.2,2.6-64.1,4.9-104.2,0.6c-18.3-2-33.9-14-41.1-31c-7.9-18.8-18.1-46.4-26.2-79.9c-1.1-4.4-2.2-8.9-3.1-13.5
					c-1.2-5-2.2-10-3.1-15.2c-2-11.1-3.8-22.6-5.1-34.5c-0.6-5-1-10-1.4-15.2c-1.2-15.7,10.4-29.5,26.1-31
					c9.5-0.9,21.6-1.9,36.3-2.6c40.6-2,100.6-2.5,180,3.5C3222.6,2646.7,3234.7,2661.6,3232.6,2678.1z"/>
				<g>
					<path class="st6" d="M3230.7,2690.6c-1.6,10.2-3.6,21.8-6.3,34.5h-254.3c-2-11.1-3.8-22.6-5.1-34.5H3230.7z"/>
					<path class="st6" d="M3220.9,2740.3h-247.7c0.9,4.6,2,9.1,3.1,13.5h241.2L3220.9,2740.3z"/>
				</g>
				<path class="st15" d="M3193.6,2824.3c-1.4,3.3-2.9,6.7-4.4,10c-7.5,16.6-23.2,28-41.4,29.9c-25.2,2.6-64.1,4.9-104.2,0.6
					c-18.3-2-33.9-14-41.1-31c-7.9-18.8-18.1-46.4-26.2-79.9c-1.1-4.4-2.2-8.9-3.1-13.5c-1.2-5-2.2-10-3.1-15.2
					c-2-11.1-3.8-22.6-5.1-34.5c-0.6-5-1-10-1.4-15.2c-1.2-15.7,10.4-29.5,26.1-31c9.5-0.9,21.6-1.9,36.3-2.6
					c1.2,11.8,5.6,25.3,6.9,33.9c5.3,35.5,9,73.4,32.3,102.4C3094.8,2815,3145.6,2825.1,3193.6,2824.3z"/>
			</g>
		</g>
		<g>
			<g>
				<path class="st6" d="M3115.9,1239.7l-14.9,33.2c-20.6,45.9-60.9,77.1-106.5,88.2c-32.8,8-68.3,5.6-101.3-9.2l-7.9-3.5
					l-99.5,59.6l39.7-86.4l-34.6-15.5c-78.9-35.4-114.5-128.9-79.1-207.8l14.9-33.2c30.8-68.6,105.6-104.5,176.5-89.3
					c0.2,0,0.2,0,0.2,0c10.5,2.2,20.9,5.6,31.1,10.2l102.2,45.9C3115.7,1067.3,3151.2,1160.8,3115.9,1239.7z"/>
				<path class="st16" d="M2994.5,1361.1c-32.8,8-68.3,5.6-101.3-9.2l-7.9-3.5l-99.5,59.6l39.7-86.4l-34.6-15.5
					c-78.9-35.4-114.5-128.9-79.1-207.8l14.9-33.2c30.8-68.6,105.6-104.5,176.5-89.3c-5-0.4-86.4-5.6-130.1,56.9
					c-45.1,64.5-71.4,145.4-34.7,194.2c36.6,48.7,114.5,77.6,114.5,77.6l-32.8,63.9l77.3-37.9
					C2897.6,1330.5,2936.5,1369.5,2994.5,1361.1z"/>
			</g>
			<g>
				<path class="st38" d="M2931.8,1100.6c-4.4-2-4.3-8.1,0.2-18.1c2.4-5.5,4.8-9.5,6.9-12.1c2.2-2.6,5-4.5,8.5-5.7s7.1-0.9,10.8,0.8
					s6.5,3.8,8.4,6.3s3.1,5.1,3.6,7.7s0.4,5.6-0.3,9.2c-0.9,5.2-3,11.5-6.4,19s-7.6,14.9-12.7,22.2c-4.9,7.3-9.6,13.6-14.1,18.8
					c-11.8,13.8-22.7,31.7-32.7,53.7c-3.4,7.5-5.7,12.7-6.9,15.6c-2.7-1.2-4.4-1.8-4.9-1.8s-0.9,0-1.2-0.1c-2.9-1.3-4-3.9-3.3-7.8
					c7.7-17.1,18.6-35.6,32.8-55.6c14.2-19.9,24.4-37,30.8-51.1c6.4-14.2,7.2-22.3,2.6-24.3c-3-1.3-6,1.5-9.1,8.3
					c-0.5,1.2-1.9,5.7-4.1,13.3c-0.3,0.7-1.7,1.2-4.1,1.6C2934.3,1100.9,2932.6,1100.9,2931.8,1100.6z M2892.8,1237.7
					c-2.7,5.9-7.1,7.5-13.4,4.6c-2.2-1-3.7-2.7-4.5-5.2s-0.8-4.9,0.2-7.1s2.9-3.8,5.6-4.9c2.8-1.1,5.2-1.1,7.4-0.2
					c2.2,1,3.7,2.9,4.6,5.7C2893.6,1233.4,2893.6,1235.8,2892.8,1237.7z"/>
			</g>
		</g>
		<g>
			<g>
				<path class="st6" d="M2101.8,1413.6l-126.7-38.2c-39.2,28.8-91.3,39.1-140.9,23.2l-88.1-28.3
					c-82.3-26.4-128.1-115.4-101.7-197.8l13.2-41.2c21.7-67.8,85.8-110.8,153.7-109.1c0.1,0,0.1,0,0.1,0c14.6,0.3,29.4,2.8,43.9,7.5
					l88.1,28.3c82.3,26.4,128.1,115.4,101.7,197.7l-13.2,41.2c-1.8,5.5-3.8,10.9-6.1,16L2101.8,1413.6z"/>
				<path class="st16" d="M2101.8,1413.6l-126.7-38.2c-39.2,28.8-91.3,39.1-140.9,23.2l-88.1-28.3
					c-82.3-26.4-128.1-115.4-101.7-197.8l13.2-41.2c21.7-67.8,85.8-110.8,153.7-109.1c-2.7,0.8-96.5,28.4-127.7,122.6
					c-31.6,95.7-15,160,45.7,192.2s148,56.1,178.9,47c30.9-9.2,65.8-29.5,65.8-29.5L2101.8,1413.6z"/>
			</g>
			<g>
				<path class="st38" d="M1801.9,1311.8c-32-12.7-31.6-60.5,1.3-143.6c9.1-22.8,17.1-38.8,24.2-48c8.7-11.2,17.5-18.3,26.2-21.2
					c11.7-3.9,24.4-3.2,38.1,2.1c19.2,7.7,29.9,23.3,32.2,46.9c2.2,23.3-3.5,52.1-17.2,86.5c-3.8,9.6-6.9,16.2-9.3,19.6
					s-4.5,6.3-6.6,8.4c-2,2.2-4.1,3.8-6.1,4.9c-4.9,2.5-9.9,2.8-15,0.7c-3.9-1.5-6.1-7.5-6.7-17.8c-5.5,6.2-11.5,10.7-17.9,13.5
					s-12.2,3.1-17.3,1.1c-8.4-3.3-13.1-9.7-14-19c-1.2-12.2,2.9-30.4,12.5-54.6c4.6-11.7,8-19.3,10-22.8s3.9-6.7,5.8-9.6
					s3.6-5.2,5.4-7c1.7-1.8,3.7-3.5,6-5.2c2.4-1.7,4.7-2.9,6.9-3.6c5.3-1.5,10.2-1.3,14.7,0.5s7.9,4.2,10.2,7.3
					c2.3,3.1,3.9,6.5,4.9,10.2c0.9,3.7,1.4,8.2,1.3,13.4c-0.1,5.2-0.5,10.1-1.3,14.8c-0.8,4.7-1.9,10.1-3.4,16.1s-2.9,11.2-4.2,15.6
					c-1.3,4.4-2.8,9.3-4.5,15c-1.7,5.6-2.9,9.8-3.7,12.7l-0.4,1l1.2,6.7c2.1-0.3,4.5-2.5,7.3-6.6c3.9-5.8,7.3-12.3,10.2-19.5
					c2.9-7.3,5.3-13.7,7.1-19.3c1.9-5.6,3.7-11.9,5.4-18.9c1.7-6.9,3-13.5,3.8-19.8c0.8-6.2,1.1-12.5,0.9-18.9
					c-0.2-6.3-1.2-12.1-2.8-17.2c-3.6-11.2-10.8-19-21.7-23.3c-14.4-5.7-26.8-4.2-37,4.6c-8.3,7.1-15.5,17.9-21.8,32.5
					c-1.6,3.5-3.3,7.7-5.3,12.8l-5.5,13.9c-24.5,61.7-30.6,101.1-18.4,118.1c2.3,3.2,5.9,5.8,10.9,7.7c5,1.9,10.4,3.2,16.2,3.9
					c5.8,0.7,10.8,0.6,14.9-0.2c4.1-0.8,7.8-1.7,11.1-2.7c8-2.5,12.9-3.5,14.6-2.8c1.8,0.7,2.4,1.8,1.7,3.4
					c-0.7,1.9-2.9,3.9-6.3,6.1c-3.5,2.2-8,4.1-13.5,5.7s-12.3,2.2-20.4,1.7C1818.7,1317.1,1810.4,1315.2,1801.9,1311.8z
					 M1871.6,1156.5c-4.5-1.8-10,1.7-16.4,10.4c-6.5,8.7-12.3,19.6-17.5,32.6c-5.2,13.1-8.3,24.9-9.2,35.4
					c-1,10.6,1.1,16.8,6.2,18.9c3.3,1.3,7.9-0.2,13.7-4.5c5.8-4.3,9.4-8.3,10.9-11.9l7.1-17.8c3.7-9.4,6.7-19.2,8.9-29.4
					C1876.4,1172.2,1875.2,1161,1871.6,1156.5z"/>
			</g>
		</g>
		<g>
			<g>
				<path class="st6" d="M3305.8,1871c0,29.6-6.6,57.8-18.3,83.1c-0.1,0.1-0.1,0.1-0.1,0.1c-31.6,68.1-100.7,115.5-180.3,115.5
					h-54.8c-76.6,0-143.3-43.9-176.5-107.7l-152.4-2.7l130.3-91.8c1.5-84.1,55.9-156,131.1-183.4c21.1-7.7,43.8-11.9,67.4-11.9h54.8
					c54.6,0,104.3,22.4,140.4,58.3C3283.4,1766.7,3305.8,1816.4,3305.8,1871z"/>
				<path class="st16" d="M3287.4,1954.2c-31.6,68.1-100.7,115.5-180.3,115.5h-54.8c-76.6,0-143.3-43.9-176.5-107.7l-152.4-2.7
					l130.3-91.8c1.5-84.1,55.9-156,131.1-183.4c0.1,0,0.1,0,0.1,0s-127.8,83.9-109.4,195.2l-93.8,62.8l106.7,4
					c0,0,34.3,88.4,147.1,103.8C3148.6,2065.4,3241.1,2028.2,3287.4,1954.2z"/>
			</g>
			<g>
				<g>
					<path class="st38" d="M3068.4,1953.7l-35.2,2.1c-2.2,0-4.1-0.6-5.9-1.9c-1.7-1.3-2.6-3-2.6-5.1v-0.9c3.2-3.8,5.9-8.9,8.1-15.2
						c2.2-6.3,3.7-10.4,4.6-12.3c8.8-19.5,15.3-37.3,19.6-53.5s6.4-33.8,6.4-52.6c0-18.9-3.7-28.6-11-29.2c-2.6,1.4-4.3,5-5.2,11
						c-0.9,5.6-3.2,8.5-6.9,8.5s-5.5-2.4-5.5-7.1c0-7.5,2.2-13.6,6.5-18.3c2.4-2.6,5.2-3.8,8.3-3.8v-0.1c8,0,13.7,2.5,17.4,7.4
						c2.6,3.7,4.3,7,5,9.9s1.2,5.3,1.5,7s0.5,3.9,0.6,6.6c0.2,4.1,0.3,10,0.3,17.7s-1.4,17.8-4.1,30.2c-2.7,12.4-5.7,22.9-8.8,31.5
						c-3.2,8.6-7.2,19-12,31c-4.8,12.1-8.3,21.3-10.4,27.7c9.3-1.6,18.4-2.4,27.3-2.4c3.2,2.3,4.8,4.4,4.8,6.3
						C3071.5,1950.2,3070.5,1952,3068.4,1953.7z"/>
					<path class="st38" d="M3111.4,1888l2.1-64.6c0-1.6,0.7-2.8,2-3.8c1.4-0.9,2.7-1.4,3.9-1.4l3.6,4.1v11c0,24-0.2,41.8-0.5,53.6
						l6.7-0.6c4.6,0,6.9,1.7,6.9,5c0,3.8-3.1,5.6-9.2,5.6c-2.5,0-3.7,0.7-3.7,2c0,5.2,0.2,12.3,0.6,21.4c0.4,9.1,1,14.5,1.7,16.2
						c-0.3,1.8-0.5,3.5-0.5,5s0.3,2.8,1,3.9v4.2c0,5.8-1.8,8.7-5.4,8.7c-2.3,0-4.1-1.2-5.4-3.6c-1.3-2.4-1.9-4.8-1.9-7.3v-0.8
						c0.8-2.9,1.2-5.6,1.2-8.3l-1.7-22.4l0.2-10c0-2.6-0.2-5-0.4-7.1l-12.6,1.2v0.1c-2.9,0-5.9-1.2-9-3.7c0-3.5,0.3-6.4,1-8.9
						c-0.7-3.6-1-8-1-13.1s0.6-13,1.7-23.6c1.2-10.6,1.7-18.4,1.7-23.3v-42.7c0-1.5,0.3-2.6,0.8-3.4s1.7-1.1,3.5-1.1
						s3.4,0.5,4.8,1.6c1.4,1.1,2.1,2.4,2.1,4.2l-1,17.9l-0.1,4.2c0,1.6,0.2,3,0.5,4.2v0.8c0.5,4.1,0.7,8.8,0.7,14.1
						c0,5.3-0.5,14.5-1.6,27.6c-1.1,13-1.6,21.6-1.6,25.7s0.1,7.1,0.3,8.8C3105.5,1889.2,3108.4,1888.8,3111.4,1888z"/>
				</g>
				<path class="st39" d="M3205.1,1816.9c6.3,15.3,9.8,32,9.8,49.5c0,71.6-58.1,129.7-129.7,129.7s-129.7-58.1-129.7-129.7
					s58.1-129.7,129.7-129.7"/>
				<polygon class="st38" points="3076.2,1725.7 3076.2,1751.5 3091.9,1738.6 				"/>
				<g>
					<g>
						<line class="st39" x1="2955.5" y1="1866.4" x2="2975" y2="1866.4"/>
						<line class="st39" x1="3195.3" y1="1866.4" x2="3214.9" y2="1866.4"/>
						<line class="st39" x1="3087.6" y1="1995.8" x2="3087.6" y2="1976.3"/>
					</g>
				</g>
			</g>
		</g>
		<g>
			<g>
				<path class="st6" d="M2202.3,1982.1l-90.1,59.5c-4.9,54.2-41.3,103.2-96.1,121l-36.7,11.9c-14.3,4.7-28.8,6.9-43.1,6.9
					c-59,0-114.3-37.7-133.5-96.6c-20.1-61.7,5.4-127.7,57.6-161.3c9.8-6.3,20.6-11.5,32.2-15.3l36.6-12
					c67.2-21.9,139.6,10.3,169.6,72.3L2202.3,1982.1z"/>
				<path class="st16" d="M2202.3,1982.1l-90.1,59.5c-4.9,54.2-41.3,103.2-96.1,121l-36.7,11.9c-14.3,4.7-28.8,6.9-43.1,6.9
					c-59,0-114.3-37.7-133.5-96.6c-20.1-61.7,5.4-127.7,57.6-161.3c-3.6,4-60.2,67.8-31.7,146.2c29.4,80.9,84.6,95.4,121.4,92.8
					c36.8-2.7,95.7-24,117.7-49.2c22.1-25.2,34.9-79.7,34.9-79.7L2202.3,1982.1z"/>
			</g>
			<g>
				<g>
					<circle class="st38" cx="1883.8" cy="2059.4" r="14.5"/>
					<circle class="st38" cx="1959.4" cy="2035.4" r="14.5"/>
					<circle class="st38" cx="2035" cy="2011.5" r="14.5"/>
				</g>
			</g>
		</g>
	</g>
</g>
<g id="DESIGNED_BY_FREEPIK">
</g>
</svg>
