<?xml version="1.0" encoding="utf-8"?>
<!-- Generator: Adobe Illustrator 23.0.0, SVG Export Plug-In . SVG Version: 6.00 Build 0)  -->
<svg version="1.1" id="Layer_1" xmlns="http://www.w3.org/2000/svg" xmlns:xlink="http://www.w3.org/1999/xlink" x="0px" y="0px"
	 viewBox="0 0 400 400" style="enable-background:new 0 0 400 400;" xml:space="preserve">
<style type="text/css">
	.st0{fill:#FFC738;}
	.st1{opacity:0.46;fill:#243E93;}
	.st2{opacity:0.46;fill:#010101;}
	.st3{opacity:0.6;fill:#243E93;}
</style>
<g>
	<path class="st0" d="M400,151.6c-0.1-0.4-0.2-0.8-0.4-1.2c-0.2-0.4-0.4-0.7-0.7-1c-0.3-0.4-0.6-0.7-0.9-1.1
		c-0.1-0.1-0.2-0.2-0.3-0.3l-64.1-49.8V46.6c0-11-9-20-20-20h-72.2L212.5,4.2c-7.1-5.6-17.2-5.6-24.3,0l-28.9,22.5H87
		c-11,0-20,9-20,20v51.6L2.9,148c-0.1,0.1-0.2,0.2-0.3,0.3c-0.3,0.3-0.6,0.7-0.9,1.1c-0.3,0.3-0.5,0.6-0.7,1
		c-0.2,0.4-0.3,0.8-0.4,1.2c-0.1,0.4-0.2,0.9-0.3,1.3c0,0.1-0.1,0.3-0.1,0.4V380c0,2.1,0.4,4.3,1.1,6.3c-1.5,2.3-1.5,5.3,0.2,7.6
		c1.6,2.2,4.5,3.2,7.2,2.4c3.4,2.4,7.4,3.7,11.5,3.7h360c4.2,0,8.2-1.3,11.6-3.8c0.6,0.2,1.2,0.3,1.8,0.3c2.4,0,4.7-1.3,5.8-3.5
		c1.2-2.1,1.1-4.7-0.3-6.8c0.7-2,1.1-4.2,1.1-6.3V153.3c0-0.1-0.1-0.3-0.1-0.4C400.2,152.5,400.1,152,400,151.6z M196.3,14.7
		c2.3-1.8,5.6-1.8,8,0l15.4,11.9H181L196.3,14.7z M73.7,173.3c3.7,0,6.7-3,6.7-6.7v-120c0-3.7,3-6.7,6.7-6.7h226.7
		c3.7,0,6.7,3,6.7,6.7v120c0,3.7,3,6.7,6.7,6.7c3.7,0,6.7-3,6.7-6.7v-51.5l46.9,36.4l-111.2,86.3c-2.9,2.3-3.4,6.4-1.2,9.4
		c2.3,2.9,6.4,3.4,9.4,1.2l109.4-85v212.8L212.5,240.7c-7.1-5.6-17.2-5.6-24.3,0L13.7,376.3V163.5l109.2,84.8
		c2.9,2.3,7.1,1.7,9.4-1.2c2.3-2.9,1.7-7.1-1.2-9.4l-111-86.2L67,115.1v51.5C67,170.3,70,173.3,73.7,173.3z M378.7,386.7H22
		l174.3-135.4c2.3-1.8,5.6-1.8,7.9,0L378.7,386.7z"/>
	<path class="st1" d="M133.7,86.6H267c3.7,0,6.7-3,6.7-6.7c0-3.7-3-6.7-6.7-6.7H133.7c-3.7,0-6.7,3-6.7,6.7
		C127,83.7,130,86.6,133.7,86.6z"/>
	<path class="st1" d="M133.7,126.6H267c3.7,0,6.7-3,6.7-6.7c0-3.7-3-6.7-6.7-6.7H133.7c-3.7,0-6.7,3-6.7,6.7
		C127,123.7,130,126.6,133.7,126.6z"/>
	<path class="st2" d="M267,153.3h-60c-3.7,0-6.7,3-6.7,6.7c0,3.7,3,6.7,6.7,6.7h60c3.7,0,6.7-3,6.7-6.7
		C273.7,156.3,270.7,153.3,267,153.3z"/>
</g>
</svg>
